<?xml version="1.0" encoding="UTF-8" standalone="no"?>
<!-- Created with Inkscape (http://www.inkscape.org/) -->

<svg
   width="84.401604mm"
   height="38.889687mm"
   viewBox="0 0 84.401604 38.889687"
   version="1.1"
   id="svg5"
   xmlns="http://www.w3.org/2000/svg"
   xmlns:svg="http://www.w3.org/2000/svg">
  <defs
     id="defs2" />
  <g
     id="layer1"
     transform="translate(-15.568044,-187.33246)">
    <path
       style="fill:#000000;stroke-width:0.264583"
       d="m 42.423251,225.73259 c -3.444696,-1.56883 -4.812668,-6.28078 -2.863996,-9.86497 2.104137,-3.87013 7.215556,-4.48405 10.325066,-1.24011 1.203878,1.25592 1.713746,2.6631 1.713746,4.72974 0,3.01549 -1.49167,5.48992 -3.921553,6.50519 -1.245571,0.52043 -3.973491,0.453 -5.253263,-0.12985 z m 3.8217,-3.46037 c 0.991285,-0.99128 1.083276,-4.53649 0.144624,-5.57369 -0.683165,-0.75489 -1.825413,-0.67666 -2.491912,0.17066 -0.442724,0.56283 -0.54837,1.07488 -0.54837,2.65785 0,1.72898 0.07676,2.03748 0.649433,2.61016 0.782415,0.78241 1.552538,0.82871 2.246225,0.13502 z m 20.234206,3.45507 c -1.580057,-0.96351 -1.820968,-1.93993 -1.916912,-7.76931 l -0.08601,-5.22552 h 2.268818 2.268818 v 4.30676 c 0,3.46973 0.08005,4.42104 0.411877,4.89479 0.544787,0.77779 1.565436,0.75144 2.378273,-0.0614 0.63569,-0.63568 0.649433,-0.73949 0.649433,-4.90549 v -4.25606 l 2.182812,0.0769 2.182813,0.0768 0.07079,6.56013 0.07079,6.56012 -1.922875,-0.0778 c -1.878941,-0.076 -1.924791,-0.0945 -2.006597,-0.80544 -0.100412,-0.87265 -0.328978,-0.91185 -0.999128,-0.17135 -0.276873,0.30594 -0.825193,0.72266 -1.218493,0.92605 -1.042681,0.53919 -3.351231,0.47041 -4.33442,-0.12914 z m -39.798613,-7.40318 v -7.63752 l 1.241958,-0.96761 1.241958,-0.9676 4.380438,0.0723 4.380437,0.0723 v 1.85209 1.85208 l -3.373437,0.074 -3.373438,0.074 v 1.5796 1.57959 h 2.910417 2.910416 v 1.84314 1.84313 l -2.84427,0.0751 -2.844271,0.0751 -0.07454,3.10886 -0.07454,3.10885 H 28.92111 26.680549 Z m 26.987499,1.02294 v -6.61459 h 1.852083 c 1.743221,0 1.852295,0.035 1.855695,0.59532 0.0021,0.32742 0.06928,0.83977 0.149537,1.13856 0.13317,0.49577 0.243451,0.44573 1.261695,-0.57252 0.736399,-0.73639 1.449625,-1.1784 2.097683,-1.29997 1.341696,-0.25171 2.285915,0.0107 2.161272,0.60053 -0.05394,0.25527 -0.228176,1.14017 -0.387199,1.96644 l -0.289129,1.50232 -0.87028,-0.14123 c -1.007571,-0.1635 -2.300484,0.40979 -2.920505,1.295 -0.327383,0.4674 -0.412936,1.37219 -0.412936,4.36713 v 3.77759 h -2.248958 -2.248958 z m 26.458332,0 v -6.61459 h 1.819011 1.81901 l 0.165224,0.82612 c 0.160899,0.8045 0.180801,0.81468 0.760677,0.38906 1.034646,-0.75942 2.685492,-1.46792 3.434369,-1.47395 1.088345,-0.009 2.765385,0.75225 3.234073,1.46756 l 0.415907,0.63476 1.193368,-0.91092 c 0.656352,-0.501 1.618851,-0.99074 2.138887,-1.0883 2.003616,-0.37588 4.065166,0.87917 4.601776,2.80151 0.14217,0.50932 0.25916,3.09893 0.25997,5.75468 l 10e-4,4.82865 h -2.24896 -2.248959 v -4.445 c 0,-3.10444 -0.09575,-4.54075 -0.3175,-4.7625 -0.44454,-0.44454 -1.434544,-0.39525 -2.205349,0.1098 -0.649224,0.42539 -0.652151,0.44676 -0.652151,4.7625 v 4.3352 H 90.04777 87.798812 v -4.25073 c 0,-2.42416 -0.117695,-4.47064 -0.273892,-4.7625 -0.33529,-0.62649 -1.49004,-0.67637 -2.313069,-0.0999 -0.567124,0.39723 -0.588039,0.56663 -0.588039,4.7625 v 4.35062 H 82.375334 80.126375 Z M 54.15273,206.47491 c -0.961792,-0.61759 -1.807604,-2.20654 -1.807604,-3.39578 0,-2.37855 1.574475,-3.78358 5.093229,-4.5451 1.127787,-0.24407 2.050521,-0.53405 2.050521,-0.64439 0,-0.11035 -0.187098,-0.38773 -0.415774,-0.6164 -0.563145,-0.56315 -2.367074,-0.52218 -3.701809,0.0841 l -1.074875,0.48821 -0.755558,-1.4431 c -0.859144,-1.64094 -0.888706,-1.58876 1.389417,-2.45248 1.898256,-0.71969 3.910105,-0.92114 5.342758,-0.53496 1.479693,0.39885 3.024843,1.89768 3.418647,3.31617 0.160686,0.5788 0.292824,3.04666 0.293634,5.48414 l 0.0015,4.43177 h -1.852083 c -1.436195,0 -1.852083,-0.0856 -1.852083,-0.38126 0,-0.67601 -0.498041,-0.71593 -1.322946,-0.10605 -1.080667,0.79897 -3.778091,0.97583 -4.80695,0.31517 z m 4.852292,-3.44075 c 0.286086,-0.2589 0.483854,-0.80168 0.483854,-1.32795 0,-0.83553 -0.04459,-0.87973 -0.727604,-0.72127 -0.93825,0.21768 -1.906495,0.82575 -2.094341,1.31527 -0.389626,1.01534 1.404747,1.57862 2.338091,0.73395 z m 9.85044,3.37554 c -1.557272,-0.9496 -1.69367,-1.78324 -1.69367,-10.35134 v -7.66756 h 2.244773 2.244772 l 0.07033,7.34218 c 0.06906,7.20956 0.08053,7.34667 0.635042,7.59019 0.438928,0.19276 0.601978,0.56512 0.732039,1.67173 0.09203,0.78306 0.09878,1.53466 0.01497,1.67023 -0.287948,0.46591 -3.369151,0.28065 -4.248277,-0.25543 z M 15.568044,199.00952 V 191.372 l 1.241958,-0.9676 1.241958,-0.9676 4.380438,0.0723 4.380437,0.0723 v 1.85208 1.85209 l -3.373437,0.074 -3.373437,0.074 v 1.57959 1.5796 h 2.910416 2.910417 v 1.84313 1.84313 l -2.844271,0.0751 -2.844271,0.0751 -0.07454,3.10885 -0.07454,3.10886 h -2.240561 -2.240562 z m 14.022916,1.02294 v -6.61458 h 2.248958 2.248959 v 6.61458 6.61459 H 31.839918 29.59096 Z m 7.672917,0 v -6.61458 h 1.858698 c 1.853553,0 1.859137,0.002 2.017447,0.79375 0.08731,0.43656 0.199918,0.79375 0.250234,0.79375 0.05032,0 0.634628,-0.38284 1.298473,-0.85076 1.02235,-0.72062 1.445421,-0.85217 2.765626,-0.8599 1.777696,-0.0104 2.701843,0.50612 3.58348,2.0029 0.471537,0.80055 0.538533,1.46748 0.615172,6.12391 l 0.08601,5.22552 h -2.268818 -2.268818 v -4.25073 c 0,-2.42416 -0.117694,-4.47064 -0.273891,-4.7625 -0.341249,-0.63763 -1.604521,-0.68008 -2.513542,-0.0845 -0.649224,0.42539 -0.65215,0.44676 -0.65215,4.7625 v 4.3352 h -2.248963 -2.248958 z m -7.164103,-8.97548 c -0.46624,-0.46624 -0.773397,-1.05226 -0.773397,-1.47556 0,-1.00134 1.319367,-2.24896 2.378291,-2.24896 1.515582,0 2.625446,0.90844 2.640378,2.16118 0.01261,1.05843 -0.241395,1.52176 -1.068842,1.94965 -1.205044,0.62315 -2.300154,0.48997 -3.17643,-0.38631 z"
       id="path169" />
  </g>
</svg>
